<?xml version="1.0" encoding="UTF-8" standalone="no"?>
<!-- Created with Inkscape (http://www.inkscape.org/) -->

<svg
   width="31.404224mm"
   height="187.6039mm"
   viewBox="0 0 31.404224 187.6039"
   version="1.1"
   id="svg1"
   xmlns="http://www.w3.org/2000/svg"
   xmlns:svg="http://www.w3.org/2000/svg">
  <defs
     id="defs1" />
  <g
     id="layer2"
     transform="translate(-19.855404,-38.988592)">
    <rect
       style="display:inline;fill:#39f86f;fill-opacity:1;stroke:none;stroke-width:9.50791;stroke-dasharray:none;stroke-dashoffset:75.0368;stroke-opacity:1"
       id="rect3"
       width="30.247341"
       height="187.6015"
       x="20.433708"
       y="38.990993" />
    <path
       style="display:inline;fill:#6b5649;fill-opacity:1;stroke:#000000;stroke-width:2.64107;stroke-dasharray:2.64107, 15.8463;stroke-dashoffset:0;stroke-opacity:1"
       d="M 35.727388,38.990987 35.387528,226.59249"
       id="path4" />
    <path
       style="display:inline;fill:#6b5649;fill-opacity:1;stroke:#000000;stroke-width:2.64107;stroke-dasharray:2.64107, 15.8463;stroke-dashoffset:0;stroke-opacity:1"
       d="M 38.170688,38.990987 37.830838,226.59249"
       id="path5" />
    <path
       style="display:inline;fill:#6b5649;fill-opacity:1;stroke:#000000;stroke-width:2.64107;stroke-dasharray:2.64107, 15.8463;stroke-dashoffset:0;stroke-opacity:1"
       d="M 40.614008,38.990987 40.274158,226.59249"
       id="path6" />
    <path
       style="display:inline;fill:#6b5649;fill-opacity:1;stroke:#000000;stroke-width:2.64107;stroke-dasharray:2.64107, 15.8463;stroke-dashoffset:0;stroke-opacity:1"
       d="M 43.057328,38.990987 42.717478,226.59249"
       id="path7" />
    <path
       style="display:inline;fill:#6b5649;fill-opacity:1;stroke:#000000;stroke-width:2.64107;stroke-dasharray:2.64107, 15.8463;stroke-dashoffset:0;stroke-opacity:1"
       d="M 45.011978,38.990987 44.672118,226.59249"
       id="path8" />
    <path
       style="display:inline;fill:#6b5649;fill-opacity:1;stroke:#000000;stroke-width:2.64107;stroke-dasharray:2.64107, 15.8463;stroke-dashoffset:0;stroke-opacity:1"
       d="M 46.966628,38.990987 46.626768,226.59249"
       id="path9" />
    <path
       style="display:inline;fill:#6b5649;fill-opacity:1;stroke:#000000;stroke-width:2.64107;stroke-dasharray:2.64107, 15.8463;stroke-dashoffset:0;stroke-opacity:1"
       d="M 49.409928,38.990987 49.070088,226.59249"
       id="path10" />
    <path
       style="display:inline;fill:#6b5649;fill-opacity:1;stroke:#000000;stroke-width:2.64107;stroke-dasharray:2.64107, 15.8463;stroke-dashoffset:0;stroke-opacity:1"
       d="M 49.939098,38.990987 49.599258,226.59249"
       id="path11" />
    <path
       style="display:inline;fill:#6b5649;fill-opacity:1;stroke:#000000;stroke-width:2.64107;stroke-dasharray:2.64107, 15.8463;stroke-dashoffset:0;stroke-opacity:1"
       d="M 33.284058,38.990987 32.944188,226.59249"
       id="path12" />
    <path
       style="display:inline;fill:#6b5649;fill-opacity:1;stroke:#000000;stroke-width:2.64107;stroke-dasharray:2.64107, 15.8463;stroke-dashoffset:0;stroke-opacity:1"
       d="M 30.840748,38.990987 30.500898,226.59249"
       id="path13" />
    <path
       style="display:inline;fill:#6b5649;fill-opacity:1;stroke:#000000;stroke-width:2.64107;stroke-dasharray:2.64107, 15.8463;stroke-dashoffset:0;stroke-opacity:1"
       d="M 28.397428,38.990987 28.057568,226.59249"
       id="path14" />
    <path
       style="display:inline;fill:#6b5649;fill-opacity:1;stroke:#000000;stroke-width:2.64107;stroke-dasharray:2.64107, 15.8463;stroke-dashoffset:0;stroke-opacity:1"
       d="M 25.954118,38.990987 25.614258,226.59249"
       id="path15" />
    <path
       style="display:inline;fill:#6b5649;fill-opacity:1;stroke:#000000;stroke-width:2.64107;stroke-dasharray:2.64107, 15.8463;stroke-dashoffset:0;stroke-opacity:1"
       d="M 23.510798,38.990987 23.170938,226.59249"
       id="path16" />
    <path
       style="display:inline;fill:#6b5649;fill-opacity:1;stroke:#000000;stroke-width:2.64107;stroke-dasharray:2.64107, 15.8463;stroke-dashoffset:0;stroke-opacity:1"
       d="M 21.515638,38.990987 21.175778,226.59249"
       id="path17" />
    <rect
       style="display:inline;fill:#000000;fill-opacity:1;stroke:none;stroke-width:2.3167;stroke-dasharray:2.3167, 13.9002;stroke-dashoffset:0;stroke-opacity:1"
       id="rect41"
       width="4.9417124"
       height="7.2600908"
       x="45.702461"
       y="212.11055" />
    <path
       style="display:inline;fill:#000000;fill-opacity:1;stroke:none;stroke-width:2.85999;stroke-dasharray:2.85999, 17.16;stroke-dashoffset:0;stroke-opacity:1"
       id="path21"
       d="m 195.15368,69.355536 -3.59535,0 -3.59534,0 1.79767,-3.113661 1.79767,-3.113661 1.79768,3.113661 z"
       transform="matrix(0.92345191,0,0,0.92345191,-141.24485,12.046691)" />
    <path
       style="display:inline;fill:#000000;fill-opacity:1;stroke:none;stroke-width:2.64105;stroke-dasharray:2.64105, 15.8463;stroke-dashoffset:0;stroke-opacity:1"
       d="m 20.362008,47.23021 h 8.65626 v 7.120471 z"
       id="path18" />
    <path
       style="display:inline;fill:#000000;fill-opacity:1;stroke:none;stroke-width:2.27791;stroke-dasharray:2.27791, 13.6675;stroke-dashoffset:0;stroke-opacity:1"
       d="m 20.076318,70.994423 8.41278,-11.30899 h -8.51664 z"
       id="path19" />
    <path
       style="display:inline;fill:#000000;fill-opacity:1;stroke:none;stroke-width:2.85999;stroke-dasharray:2.85999, 17.16;stroke-dashoffset:0;stroke-opacity:1"
       id="path22"
       d="m 195.15368,69.355536 -3.59535,0 -3.59534,0 1.79767,-3.113661 1.79767,-3.113661 1.79768,3.113661 z"
       transform="matrix(0.92345191,0,0,0.92345191,-141.24485,4.0885138)" />
    <path
       style="display:inline;fill:#000000;fill-opacity:1;stroke:none;stroke-width:2.64105;stroke-dasharray:2.64105, 15.8463;stroke-dashoffset:0;stroke-opacity:1"
       d="m 42.072478,77.178818 h 8.65626 v 7.120469 z"
       id="path23" />
    <path
       style="display:inline;fill:#000000;fill-opacity:1;stroke:none;stroke-width:1.97985;stroke-dasharray:1.97985, 11.8791;stroke-dashoffset:0;stroke-opacity:1"
       d="m 51.255538,83.933204 v 6.160193 h -5.62283 z"
       id="path24" />
    <rect
       style="display:inline;fill:#000000;fill-opacity:1;stroke:none;stroke-width:2.22767;stroke-dasharray:2.22767, 13.366;stroke-dashoffset:0;stroke-opacity:1"
       id="rect24"
       width="5.7567697"
       height="5.7624493"
       x="45.353416"
       y="90.023605" />
    <path
       style="display:inline;fill:#000000;fill-opacity:1;stroke:none;stroke-width:2.85999;stroke-dasharray:2.85999, 17.16;stroke-dashoffset:0;stroke-opacity:1"
       id="path25"
       d="m 195.15368,69.355536 -3.59535,0 -3.59534,0 1.79767,-3.113661 1.79767,-3.113661 1.79768,3.113661 z"
       transform="matrix(0.92345191,0,0,0.92345191,-141.24485,23.146978)" />
    <rect
       style="display:inline;fill:#000000;fill-opacity:1;stroke:none;stroke-width:2.77072;stroke-dasharray:2.77072, 16.6246;stroke-dashoffset:0;stroke-opacity:1"
       id="rect25"
       width="4.5862579"
       height="11.189547"
       x="46.191109"
       y="47.020782" />
    <path
       style="display:inline;fill:#000000;fill-opacity:1;stroke:none;stroke-width:2.27791;stroke-dasharray:2.27791, 13.6675;stroke-dashoffset:0;stroke-opacity:1"
       d="m 50.555058,70.994423 -8.41277,-11.30899 h 8.51663 z"
       id="path26" />
    <path
       style="display:inline;fill:#000000;fill-opacity:1;stroke:none;stroke-width:2.64105;stroke-dasharray:2.64105, 15.8463;stroke-dashoffset:0;stroke-opacity:1"
       d="m 26.606618,123.03081 v 8.65626 h 7.12048 z"
       id="path27" />
    <path
       style="display:inline;fill:#000000;fill-opacity:1;stroke:none;stroke-width:2.64105;stroke-dasharray:2.64105, 15.8463;stroke-dashoffset:0;stroke-opacity:1"
       d="m 45.175688,123.7289 v -8.65627 h -7.12047 z"
       id="path28" />
    <path
       style="display:inline;fill:none;fill-opacity:1;stroke:#000000;stroke-width:1.87264;stroke-dasharray:none;stroke-dashoffset:0;stroke-opacity:1"
       d="m 50.379708,141.24016 h -23.03684 v 4.46774 h 9.63359"
       id="path29" />
    <path
       style="display:inline;fill:#000000;fill-opacity:1;stroke:none;stroke-width:2.85999;stroke-dasharray:2.85999, 17.16;stroke-dashoffset:0;stroke-opacity:1"
       id="path30"
       d="m 195.15368,69.355536 -3.59535,0 -3.59534,0 1.79767,-3.113661 1.79767,-3.113661 1.79768,3.113661 z"
       transform="matrix(0.92345191,0,0,0.92345191,-141.24485,104.33995)" />
    <path
       style="display:inline;fill:#000000;fill-opacity:1;stroke:none;stroke-width:2.27791;stroke-dasharray:2.27791, 13.6675;stroke-dashoffset:0;stroke-opacity:1"
       d="m 20.076318,163.81686 8.41278,-11.30899 h -8.51664 z"
       id="path31" />
    <path
       style="display:inline;fill:#000000;fill-opacity:1;stroke:none;stroke-width:2.85999;stroke-dasharray:2.85999, 17.16;stroke-dashoffset:0;stroke-opacity:1"
       id="path32"
       d="m 195.15368,69.355536 -3.59535,0 -3.59534,0 1.79767,-3.113661 1.79767,-3.113661 1.79768,3.113661 z"
       transform="matrix(0.92345191,0,0,0.92345191,-141.24485,96.38177)" />
    <path
       style="display:inline;fill:#000000;fill-opacity:1;stroke:none;stroke-width:2.27791;stroke-dasharray:2.27791, 13.6675;stroke-dashoffset:0;stroke-opacity:1"
       d="m 50.555058,163.81686 -8.41277,-11.30899 h 8.51663 z"
       id="path33" />
    <path
       style="display:inline;fill:#000000;fill-opacity:1;stroke:none;stroke-width:2.64105;stroke-dasharray:2.64105, 15.8463;stroke-dashoffset:0;stroke-opacity:1"
       d="m 42.072478,168.82203 h 8.65626 v 7.12047 z"
       id="path34" />
    <path
       style="display:inline;fill:#000000;fill-opacity:1;stroke:none;stroke-width:1.9403;stroke-dasharray:1.9403, 11.6418;stroke-dashoffset:0;stroke-opacity:1"
       d="m 50.756318,174.71445 v 6.49299 h -5.12361 z"
       id="path35" />
    <path
       style="display:inline;fill:#000000;fill-opacity:1;stroke:none;stroke-width:2.85999;stroke-dasharray:2.85999, 17.16;stroke-dashoffset:0;stroke-opacity:1"
       id="path36"
       d="m 195.15368,69.355536 -3.59535,0 -3.59534,0 1.79767,-3.113661 1.79767,-3.113661 1.79768,3.113661 z"
       transform="matrix(0.92345191,0,0,0.92345191,-141.24485,114.26103)" />
    <path
       style="display:inline;fill:#000000;fill-opacity:1;stroke:none;stroke-width:1.70025;stroke-dasharray:1.70025, 10.2015;stroke-dashoffset:0;stroke-opacity:1"
       d="m 50.988438,185.98423 v -4.82895 h -5.29004 z"
       id="path37" />
    <path
       style="display:inline;fill:#000000;fill-opacity:1;stroke:none;stroke-width:2.85999;stroke-dasharray:2.85999, 17.16;stroke-dashoffset:0;stroke-opacity:1"
       id="path38"
       d="m 195.15368,69.355536 -3.59535,0 -3.59534,0 1.79767,-3.113661 1.79767,-3.113661 1.79768,3.113661 z"
       transform="matrix(0.92345191,0,0,0.92345191,-141.24485,122.66808)" />
    <path
       style="display:inline;fill:#000000;fill-opacity:1;stroke:none;stroke-width:2.64105;stroke-dasharray:2.64105, 15.8463;stroke-dashoffset:0;stroke-opacity:1"
       d="m 42.072478,187.26058 h 8.65626 v 7.12046 z"
       id="path39" />
    <path
       style="display:inline;fill:#000000;fill-opacity:1;stroke:none;stroke-width:2.64105;stroke-dasharray:2.64105, 15.8463;stroke-dashoffset:0;stroke-opacity:1"
       d="m 42.072478,207.88349 h 8.65626 v -7.12047 z"
       id="path40" />
    <path
       style="display:inline;fill:#000000;fill-opacity:1;stroke:none;stroke-width:2.85999;stroke-dasharray:2.85999, 17.16;stroke-dashoffset:0;stroke-opacity:1"
       id="path41"
       d="m 195.15368,69.355536 -3.59535,0 -3.59534,0 1.79767,-3.113661 1.79767,-3.113661 1.79768,3.113661 z"
       transform="matrix(0.92345191,0,0,0.92345191,-141.24485,135.63988)" />
    <rect
       style="display:inline;fill:#000000;fill-opacity:1;stroke:none;stroke-width:2.3167;stroke-dasharray:2.3167, 13.9002;stroke-dashoffset:0;stroke-opacity:1"
       id="rect42"
       width="4.9417124"
       height="7.2600908"
       x="20.465767"
       y="212.11055" />
    <path
       style="display:inline;fill:#000000;fill-opacity:1;stroke:none;stroke-width:2.85999;stroke-dasharray:2.85999, 17.16;stroke-dashoffset:0;stroke-opacity:1"
       id="path47"
       d="m 195.15368,69.355536 -3.59535,0 -3.59534,0 1.79767,-3.113661 1.79767,-3.113661 1.79768,3.113661 z"
       transform="matrix(0.92345191,0,0,0.92345191,-141.24485,48.983571)" />
    <path
       style="display:inline;fill:#000000;fill-opacity:1;stroke:none;stroke-width:2.27791;stroke-dasharray:2.27791, 13.6675;stroke-dashoffset:0;stroke-opacity:1"
       d="m 20.076318,107.93131 8.41278,-11.308999 h -8.51664 z"
       id="path49" />
    <path
       style="display:inline;fill:#000000;fill-opacity:1;stroke:none;stroke-width:2.85999;stroke-dasharray:2.85999, 17.16;stroke-dashoffset:0;stroke-opacity:1"
       id="path50"
       d="m 195.15368,69.355536 -3.59535,0 -3.59534,0 1.79767,-3.113661 1.79767,-3.113661 1.79768,3.113661 z"
       transform="matrix(0.92345191,0,0,0.92345191,-141.24485,41.025395)" />
    <path
       style="display:inline;fill:#000000;fill-opacity:1;stroke:none;stroke-width:2.27791;stroke-dasharray:2.27791, 13.6675;stroke-dashoffset:0;stroke-opacity:1"
       d="m 50.555058,107.93131 -8.41277,-11.308999 h 8.51663 z"
       id="path51" />
  </g>
</svg>
